<svg width="207" height="44" viewBox="0 0 207 44" fill="none" xmlns="http://www.w3.org/2000/svg">
<path d="M171.947 16.7741H178.235V12.593H171.947V16.7741ZM102.735 12.593V37.7387H109.021V25.1655H113.233V33.5577L115.339 37.7387H130.02V25.1655H133.161V37.7387H139.448V25.1655H142.591V37.7387H148.875V25.1655H152.021V20.9853H148.875V16.7741H142.591V20.9853H139.448V16.7741H133.161V20.9853H123.7V33.5577H119.52V20.9853H109.021V16.7741H119.52V12.593H102.735ZM85.9827 37.7387H92.2689V12.593H85.9827V37.7387ZM71.3017 12.593L62.9111 37.7387H69.1965L72.34 29.3767H76.5512V37.7387H82.8383V12.593H71.3017ZM76.5512 16.7741V25.1655H73.3775L76.5512 16.7741ZM171.947 37.7387H178.235V20.9853L171.947 20.9551V37.7387ZM181.377 20.9853V37.7387H187.666V25.1655H190.809V37.7387H197.092V25.1655H200.237V37.7387H206.524V25.1655L204.45 20.9853H181.377ZM154.125 20.9853L152.021 25.1655V33.5577L154.125 37.7387H168.806V20.9853H154.125ZM158.306 25.1655H162.517V33.5586H158.306V25.1655ZM94.3741 29.3465H100.66V25.1327H94.3741V29.3465Z" fill="#3D9AE4"/>
<path d="M25.1819 5.10093e-07L0 25.1276L6.29743 31.4138L12.6207 25.1491L18.8906 31.4405L12.5802 37.7552L18.8906 44L25.0585 37.7388L31.4846 44L37.7414 37.7388L31.4846 31.4811L37.8087 25.1491L44.0665 31.4138L50.3371 25.1491L25.1819 5.10093e-07ZM18.9242 18.85L25.1819 12.5862L31.4379 18.85L25.1819 25.1129L18.9242 18.85Z" fill="#3D9AE4"/>
</svg>
